PathFileType	4	(X/Y/Z)	C:\Users\86182\Documents\cortex\Trimmed_M3_L14.trc
DataRate	CameraRate	NumFrames	NumMarkers	Units	OrigDataRate	OrigDataStartFrame	OrigNumFrames
100.00	100.00	       144	2	mm	100.00	1	       901
Frame#	Time	gripper			box			
		X1	Y1	Z1	X2	Y2	Z2	

1	0.000	274.70667	148.70515	192.89063	277.71741	146.63055	57.35796	
2	0.010	274.70493	148.70552	192.88698	277.73422	146.64380	57.34317	
3	0.020	274.69702	148.70706	192.87059	277.71875	146.63420	57.34840	
4	0.030	274.71826	148.70999	192.89465	277.76205	146.65103	57.36646	
5	0.040	274.70752	148.70499	192.89244	277.70615	146.62541	57.35580	
6	0.050	274.70145	148.70621	192.87970	277.71957	146.63060	57.36147	
7	0.060	274.70145	148.70621	192.87970	277.67230	146.60773	57.35625	
8	0.070	274.69965	148.70653	192.87607	277.70193	146.62318	57.35587	
9	0.080	274.70316	148.70586	192.88336	277.72879	146.63142	57.37426	
10	0.090	274.69437	148.70758	192.86508	277.71109	146.62836	57.35452	
11	0.100	274.68991	148.70844	192.85588	277.67294	146.60846	57.35508	
12	0.110	274.69702	148.70706	192.87059	277.67294	146.60846	57.35508	
13	0.120	274.70053	148.70636	192.87790	277.67911	146.61494	57.34434	
14	0.130	274.70493	148.70552	192.88698	277.71109	146.62836	57.35452	
15	0.140	274.69522	148.70740	192.86691	277.67569	146.61133	57.35033	
16	0.150	274.70404	148.70569	192.88516	277.73077	146.63574	57.36363	
17	0.160	274.69702	148.70706	192.87059	277.67706	146.61276	57.34794	
18	0.170	274.69437	148.70758	192.86508	277.70126	146.62247	57.35706	
19	0.180	274.70227	148.70602	192.88155	277.71255	146.62764	57.35926	
20	0.190	274.68991	148.70844	192.85588	277.67569	146.61133	57.35033	
21	0.200	274.69788	148.70688	192.87241	277.69717	146.61816	57.36419	
22	0.210	274.70227	148.70602	192.88155	277.72162	146.63278	57.35787	
23	0.220	274.68991	148.70844	192.85588	277.68301	146.61223	57.35968	
24	0.230	274.69788	148.70688	192.87241	277.70981	146.62477	57.36401	
25	0.240	274.69788	148.70688	192.87241	277.68369	146.61295	57.35851	
26	0.250	274.68991	148.70844	192.85588	277.67844	146.61421	57.34554	
27	0.260	274.70404	148.70569	192.88516	277.71265	146.62552	57.36631	
28	0.270	274.69876	148.70670	192.87425	277.67911	146.61494	57.34434	
29	0.280	274.69165	148.70807	192.85957	277.67294	146.60846	57.35508	
30	0.290	274.70493	148.70552	192.88698	277.68369	146.61295	57.35851	
31	0.300	274.69876	148.70670	192.87425	277.67230	146.60773	57.35625	
32	0.310	274.69080	148.70825	192.85773	277.67639	146.61203	57.34913	
33	0.320	274.70667	148.70515	192.89063	277.71619	146.62700	57.36742	
34	0.330	274.69522	148.70740	192.86691	277.67844	146.61421	57.34554	
35	0.340	274.69702	148.70706	192.87059	277.67230	146.60773	57.35625	
36	0.350	274.69965	148.70653	192.87607	277.70697	146.62402	57.36169	
37	0.360	274.70145	148.70621	192.87970	277.69061	146.61800	57.35367	
38	0.370	274.69876	148.70670	192.87425	277.69418	146.61951	57.35480	
39	0.380	274.69702	148.70706	192.87059	277.67590	146.60925	57.35739	
40	0.390	274.69165	148.70807	192.85957	277.67639	146.61203	57.34913	
41	0.400	274.70404	148.70569	192.88516	277.68854	146.61584	57.35724	
42	0.410	274.70493	148.70552	192.88698	277.71536	146.62839	57.36155	
43	0.420	274.69522	148.70740	192.86691	277.67230	146.60773	57.35625	
44	0.430	274.70053	148.70636	192.87790	277.68652	146.61369	57.36079	
45	0.440	274.69788	148.70688	192.87241	277.69196	146.61945	57.35128	
46	0.450	274.70053	148.70636	192.87790	277.67792	146.61140	57.35384	
47	0.460	274.70667	148.70515	192.89063	277.69077	146.61592	57.36076	
48	0.470	274.69522	148.70740	192.86691	277.67981	146.61566	57.34314	
49	0.480	274.70667	148.70515	192.89063	277.71265	146.62552	57.36631	
50	0.490	274.70316	148.70586	192.88336	277.68301	146.61223	57.35968	
51	0.500	274.70667	148.70515	192.89063	277.67639	146.61203	57.34913	
52	0.510	274.70404	148.70569	192.88516	277.71548	146.62630	57.36861	
53	0.520	274.70316	148.70586	192.88336	277.69281	146.61807	57.35719	
54	0.530	274.69345	148.70773	192.86325	277.68640	146.61581	57.35375	
55	0.540	274.69611	148.70723	192.86876	277.68301	146.61223	57.35968	
56	0.550	274.68991	148.70844	192.85588	277.67432	146.60988	57.35270	
57	0.560	274.70145	148.70621	192.87970	277.67294	146.60846	57.35508	
58	0.570	274.69345	148.70773	192.86325	277.69431	146.61742	57.36189	
59	0.580	274.70404	148.70569	192.88516	277.69775	146.62100	57.35593	
60	0.590	274.68991	148.70844	192.85588	277.68408	146.61790	57.34308	
61	0.600	274.69257	148.70790	192.86142	277.67569	146.61133	57.35033	
62	0.610	274.69788	148.70688	192.87241	277.69717	146.61816	57.36419	
63	0.620	274.69437	148.70758	192.86508	277.67706	146.61276	57.34794	
64	0.630	274.69788	148.70688	192.87241	277.67947	146.61073	57.35854	
65	0.640	274.70493	148.70552	192.88698	277.67590	146.60925	57.35739	
66	0.650	274.69345	148.70773	192.86325	277.70480	146.62396	57.35818	
67	0.660	274.70493	148.70552	192.88698	277.67639	146.61203	57.34913	
68	0.670	274.69876	148.70670	192.87425	277.69061	146.61800	57.35367	
69	0.680	274.70316	148.70586	192.88336	277.68652	146.61369	57.36079	
70	0.690	274.70316	148.70586	192.88336	277.70779	146.62262	57.36757	
71	0.700	274.69876	148.70670	192.87425	277.72870	146.63358	57.36721	
72	0.710	274.69876	148.70670	192.87425	277.67499	146.61061	57.35151	
73	0.720	274.70145	148.70621	192.87970	277.72037	146.62920	57.36736	
74	0.730	274.69257	148.70790	192.86142	277.68573	146.61510	57.35494	
75	0.740	274.70053	148.70636	192.87790	277.67432	146.60988	57.35270	
76	0.750	274.69702	148.70706	192.87059	277.70779	146.62262	57.36757	
77	0.760	274.68991	148.70844	192.85588	277.67230	146.60773	57.35625	
78	0.770	274.69437	148.70758	192.86508	277.70056	146.62175	57.35826	
79	0.780	274.69611	148.70723	192.86876	277.69705	146.62029	57.35712	
80	0.790	274.69611	148.70723	192.86876	277.67230	146.60773	57.35625	
81	0.800	274.69345	148.70773	192.86325	277.67590	146.60925	57.35739	
82	0.810	274.69345	148.70773	192.86325	277.67230	146.60773	57.35625	
83	0.820	274.69611	148.70723	192.86876	277.69470	146.62234	57.34648	
84	0.830	274.69788	148.70688	192.87241	277.69855	146.61960	57.36182	
85	0.840	274.69522	148.70740	192.86691	277.67947	146.61073	57.35854	
86	0.850	274.70227	148.70602	192.88155	277.69418	146.61951	57.35480	
87	0.860	274.69876	148.70670	192.87425	277.70615	146.62541	57.35580	
88	0.870	274.69611	148.70723	192.86876	277.67294	146.60846	57.35508	
89	0.880	274.69702	148.70706	192.87059	277.69717	146.61816	57.36419	
90	0.890	274.69257	148.70790	192.86142	277.70563	146.62257	57.36407	
91	0.900	274.69522	148.70740	192.86691	277.69061	146.61800	57.35367	
92	0.910	274.69702	148.70706	192.87059	277.67590	146.60925	57.35739	
93	0.920	274.69702	148.70706	192.87059	277.67230	146.60773	57.35625	
94	0.930	274.69522	148.70740	192.86691	277.69717	146.61816	57.36419	
95	0.940	274.69345	148.70773	192.86325	277.73636	146.63721	57.36822	
96	0.950	274.70316	148.70586	192.88336	277.67230	146.60773	57.35625	
97	0.960	274.69080	148.70825	192.85773	277.69501	146.61813	57.36069	
98	0.970	274.69345	148.70773	192.86325	277.69556	146.62096	57.35242	
99	0.980	274.71014	148.70448	192.89786	277.67706	146.61276	57.34794	
100	0.990	274.69522	148.70740	192.86691	277.67230	146.60773	57.35625	
101	1.000	274.69345	148.70773	192.86325	277.67569	146.61133	57.35033	
102	1.010	274.68906	148.71010	192.87674	277.67230	146.60773	57.35625	
103	1.020	274.69727	148.70903	192.90117	277.67230	146.60773	57.35625	
104	1.030	274.66843	148.71918	192.90858	277.63464	146.61652	57.38105	
105	1.040	274.63681	148.73030	192.91672	277.57349	146.64610	57.42930	
106	1.050	274.61877	148.72983	192.92950	277.49149	146.71733	57.50243	
107	1.060	274.58539	148.72894	192.95316	277.47562	146.72658	57.51614	
108	1.070	274.61337	148.78290	193.04831	277.32269	146.78391	57.57911	
109	1.080	274.38843	148.79834	193.23077	277.40536	146.74370	57.56974	
110	1.090	274.39496	148.72600	193.39566	277.43140	146.76300	57.62951	
111	1.100	274.04459	148.73857	193.68906	277.28067	146.72549	57.83859	
112	1.110	274.09903	148.74464	193.72433	277.45016	146.68240	57.97704	
113	1.120	274.07251	148.72293	193.89856	277.43900	146.70047	58.02514	
114	1.130	274.11417	148.74377	194.07376	277.38492	146.56053	58.28405	
115	1.140	274.36234	148.62894	194.15843	277.46109	146.57913	58.56048	
116	1.150	274.39581	148.63040	194.50951	277.54248	146.62210	58.62645	
117	1.160	274.67126	148.63576	194.82736	277.51535	146.59554	58.86159	
118	1.170	274.88425	148.48428	194.91940	277.68243	146.67699	59.32231	
119	1.180	274.70807	148.57484	195.41086	277.64880	146.86116	59.83031	
120	1.190	273.96661	148.81285	195.96132	277.39935	146.86519	60.25795	
121	1.200	274.26196	148.84282	196.38580	277.32379	146.78629	60.56392	
122	1.210	274.41348	148.77856	196.58223	277.40945	146.75192	60.87968	
123	1.220	274.81384	148.58922	196.98184	277.51434	146.79164	61.25923	
124	1.230	274.43109	148.68021	197.31480	277.68076	146.83647	61.59281	
125	1.240	273.90805	148.93237	198.23767	277.37006	146.86041	62.27019	
126	1.250	274.33743	148.91493	198.31348	277.19174	146.90974	62.78488	
127	1.260	274.51953	148.91229	198.57967	277.28070	146.94661	62.94979	
128	1.270	274.45541	148.87859	199.09331	277.53015	147.09950	63.33645	
129	1.280	274.50708	148.81741	199.58636	277.54572	146.88496	63.73920	
130	1.290	274.23083	149.01006	200.12648	277.31329	146.98212	64.35591	
131	1.300	274.32962	148.97658	200.46622	277.11874	147.09979	65.11369	
132	1.310	274.35657	148.89769	201.01001	277.41159	147.06908	65.24497	
133	1.320	274.22754	148.97400	201.27650	277.42056	147.11075	65.59428	
134	1.330	274.42130	148.83195	201.79807	277.28531	147.09363	66.05987	
135	1.340	274.48218	148.99417	202.30730	277.20047	147.01047	66.52383	
136	1.350	274.61349	148.93587	202.69905	277.11902	147.08440	67.11523	
137	1.360	274.38263	148.84747	203.05301	277.43283	147.16023	67.53574	
138	1.370	274.61841	148.87610	203.38016	277.52145	147.14099	67.72891	
139	1.380	275.13199	148.65913	203.80345	277.47681	147.13168	68.11303	
140	1.390	274.61432	148.97769	204.39668	277.23810	147.13972	68.58373	
141	1.400	274.65778	148.93408	204.66061	277.27335	147.05641	68.99200	
142	1.410	274.76819	148.90060	205.04225	277.54776	147.11621	69.46328	
143	1.420	274.63797	148.94598	205.69272	277.53983	147.13129	69.91301	
144	1.430	274.39929	148.92604	205.98975	277.61533	147.11423	70.23976	
